<?xml version="1.0" encoding="UTF-8" standalone="no"?>
<svg
   xmlns:dc="http://purl.org/dc/elements/1.1/"
   xmlns:cc="http://creativecommons.org/ns#"
   xmlns:rdf="http://www.w3.org/1999/02/22-rdf-syntax-ns#"
   xmlns:svg="http://www.w3.org/2000/svg"
   xmlns="http://www.w3.org/2000/svg"
   xmlns:sodipodi="http://sodipodi.sourceforge.net/DTD/sodipodi-0.dtd"
   xmlns:inkscape="http://www.inkscape.org/namespaces/inkscape"
   width="2500"
   height="2500"
   viewBox="0 0 192.756 192.756"
   version="1.1"
   id="svg14"
   sodipodi:docname="LoReL.svg"
   inkscape:version="0.92.4 (5da689c313, 2019-01-14)">
  <metadata
     id="metadata20">
    <rdf:RDF>
      <cc:Work
         rdf:about="">
        <dc:format>image/svg+xml</dc:format>
        <dc:type
           rdf:resource="http://purl.org/dc/dcmitype/StillImage" />
        <dc:title></dc:title>
      </cc:Work>
    </rdf:RDF>
  </metadata>
  <defs
     id="defs18" />
  <sodipodi:namedview
     pagecolor="#ffffff"
     bordercolor="#666666"
     borderopacity="1"
     objecttolerance="10"
     gridtolerance="10"
     guidetolerance="10"
     inkscape:pageopacity="0"
     inkscape:pageshadow="2"
     inkscape:window-width="1920"
     inkscape:window-height="1027"
     id="namedview16"
     showgrid="false"
     inkscape:zoom="0.53400704"
     inkscape:cx="1155.3233"
     inkscape:cy="1502.458"
     inkscape:window-x="1912"
     inkscape:window-y="-8"
     inkscape:window-maximized="1"
     inkscape:current-layer="svg14" />
  <path
     style="fill:#ff0000;fill-opacity:1;stroke:none;stroke-width:0.03310381;stroke-miterlimit:4;stroke-dasharray:none"
     d=""
     id="path905"
     inkscape:connector-curvature="0"
     transform="scale(0.0771024)" />
  <g
     id="g1047"
     inkscape:export-xdpi="600"
     inkscape:export-ydpi="600">
    <path
       sodipodi:nodetypes="ccccccccccccc"
       d="m 103.904,103.727 h 22.534 v -2.762 h -18.614 v -8.729 h 13.983 v -2.85 h -13.983 v -8.105 h 18.614 V 78.52 h -22.534 z"
       id="path8"
       inkscape:connector-curvature="0"
       style="clip-rule:evenodd;fill-rule:evenodd;stroke:none" />
    <path
       sodipodi:nodetypes="ccsccccccccsccsccsssssssssssccccccc"
       d="m 91.702,93.216 c 5.791,-1.514 6.324,-5.79 6.324,-7.393 -0.355,-4.453 -3.384,-7.304 -8.817,-7.304 H 73.354 v 25.207 h 3.562 v -10.51 h 10.332 l 7.66,10.51 h 4.542 c 10e-4,0.001 -5.521,-7.125 -7.748,-10.51 z M 88.673,90.188 H 76.917 v -8.64 H 89.12 c 2.761,0 4.364,1.336 4.898,2.939 0.446,1.157 0.178,2.672 -0.445,3.651 -0.98,1.694 -2.94,2.05 -4.9,2.05 z M 51.621,74.334 c -10.243,0 -17.19,7.125 -17.19,15.854 0,9.173 7.66,15.677 17.19,15.677 9.442,0 17.101,-6.414 17.101,-15.677 0,-8.729 -7.036,-15.854 -17.101,-15.854 z m -0.178,28.412 c -7.037,0 -12.915,-5.699 -12.915,-12.558 0,-6.77 5.611,-12.736 13.182,-12.736 7.481,0 12.915,5.967 12.915,12.736 0,6.859 -6.056,12.558 -13.182,12.558 z M 12.521,100.965 V 78.52 H 9.047 v 25.207 h 22.712 v -2.762 z"
       id="path10"
       inkscape:connector-curvature="0"
       style="clip-rule:evenodd;fill-rule:evenodd;stroke:none" />
    <path
       sodipodi:nodetypes="ccccccc"
       d="M 132.555,100.81082 V 78.365791 h -3.563 v 25.207119 h 22.801 v -2.76209 z"
       id="path10-0"
       inkscape:connector-curvature="0"
       style="clip-rule:evenodd;fill-rule:evenodd;stroke:none;stroke-width:1" />
    <path
       inkscape:connector-curvature="0"
       id="path943"
       d="m 133.31897,73.638931 c 0,-0.119118 -0.065,-0.216577 -0.14438,-0.216577 -0.0794,0 -0.14438,-0.154477 -0.14438,-0.343283 0,-0.188805 -0.0975,-0.424166 -0.21658,-0.523024 -0.14949,-0.124067 -0.21658,-0.454412 -0.21658,-1.066478 v -0.886734 l 0.68583,-0.324093 c 0.3772,-0.178251 0.76908,-0.323537 0.87084,-0.322856 0.10176,6.94e-4 0.22241,-0.09622 0.26812,-0.21534 0.0457,-0.119117 0.23395,-0.216577 0.41831,-0.216577 0.18436,0 0.42474,-0.08954 0.53417,-0.198972 0.10944,-0.109436 0.40103,-0.243353 0.64799,-0.297593 0.24695,-0.05424 0.48488,-0.192108 0.52873,-0.306373 0.0439,-0.114264 0.19726,-0.207754 0.34093,-0.207754 0.56814,0 1.15403,-1.206807 0.97706,-2.012529 -0.11644,-0.530178 0.0922,-0.602956 1.24917,-0.435678 0.50306,0.07274 1.18337,0.133554 1.51179,0.135151 0.32842,0.0016 0.78323,0.09996 1.01069,0.218589 0.22746,0.118629 0.73843,0.21825 1.13549,0.221381 1.07232,0.0085 1.73554,0.669424 1.15508,1.151163 -0.11912,0.09886 -0.21658,0.301734 -0.21658,0.450833 0,0.149099 -0.067,0.27109 -0.14892,0.27109 -0.0819,0 -0.19232,0.113703 -0.24538,0.252673 -0.0531,0.13897 -0.21969,0.382619 -0.3703,0.541442 -0.1506,0.158824 -0.3324,0.418716 -0.404,0.577539 -0.25403,0.563515 -1.88006,2.863858 -2.13632,3.022231 -0.0813,0.05026 -0.3711,-0.152208 -0.64394,-0.449933 -0.4388,-0.478816 -0.56842,-0.538434 -1.12253,-0.516337 -0.37385,0.01491 -0.69215,0.114857 -0.78942,0.247875 -0.0896,0.122592 -0.26419,0.222895 -0.38788,0.222895 -0.27401,0 -1.64762,0.676946 -1.76763,0.871119 -0.0474,0.07676 -0.23691,0.139573 -0.42102,0.139573 -0.18412,0 -0.41565,0.09746 -0.5145,0.216577 -0.10969,0.132156 -0.42612,0.216577 -0.8118,0.216577 -0.46557,0 -0.63206,-0.05705 -0.63206,-0.216577 z"
       style="fill:#008000;fill-opacity:1;stroke:none;stroke-width:0.01443846;stroke-miterlimit:4;stroke-dasharray:none" />
    <path
       inkscape:connector-curvature="0"
       id="path945"
       d="m 139.20506,90.294052 c -0.20513,-0.186811 -0.50887,-0.715695 -0.67498,-1.175287 -0.66612,-1.842994 -0.40714,-2.134349 3.49498,-3.931907 1.18601,-0.546355 1.48748,-0.921227 1.59903,-1.988386 0.0915,-0.875289 0.27661,-1.1743 0.64356,-1.039433 0.10561,0.03881 0.75992,0.134907 1.45402,0.213528 0.6941,0.07863 1.45234,0.203435 1.68498,0.277345 0.23264,0.07391 0.77425,0.175647 1.20358,0.226072 1.44952,0.170265 1.90543,0.666666 1.43751,1.565186 -0.32565,0.625308 -2.92917,4.511616 -3.28235,4.899588 -0.47007,0.516393 -0.62703,0.500973 -1.09089,-0.107165 -0.21152,-0.277329 -0.54883,-0.545453 -0.74957,-0.595832 -0.36976,-0.09281 -0.49427,-0.04319 -3.16913,1.262853 -1.5475,0.755596 -2.06538,0.835474 -2.55074,0.393438 z"
       style="fill:#008000;fill-opacity:1;stroke:none;stroke-width:0.01443846;stroke-miterlimit:4;stroke-dasharray:none" />
    <path
       inkscape:connector-curvature="0"
       id="path947"
       d="m 139.37041,81.796057 c -0.41591,-0.04794 -0.47069,-0.07575 -0.76816,-0.39 -0.41091,-0.434109 -0.48532,-0.561675 -0.58279,-0.999224 -0.0459,-0.205831 -0.12933,-0.465485 -0.1855,-0.57701 -0.0562,-0.111524 -0.14441,-0.353143 -0.19609,-0.53693 -0.0517,-0.183786 -0.15382,-0.449891 -0.22701,-0.591343 l -0.13305,-0.257186 -0.0125,-0.598345 c -0.0123,-0.590532 -0.0113,-0.599723 0.0759,-0.703875 0.0486,-0.05804 0.1331,-0.194868 0.18782,-0.304059 0.11819,-0.23587 0.37581,-0.548305 0.56528,-0.685553 0.0767,-0.05559 0.22919,-0.116907 0.34954,-0.140585 0.14584,-0.02869 0.27672,-0.08731 0.41324,-0.185069 0.1099,-0.07869 0.32286,-0.19046 0.47325,-0.248371 0.1504,-0.05791 0.3698,-0.169633 0.48756,-0.248271 0.15243,-0.101791 0.30945,-0.166536 0.54512,-0.224766 0.23575,-0.05825 0.39267,-0.12297 0.54529,-0.224883 0.11786,-0.0787 0.34372,-0.19687 0.50193,-0.262597 0.1582,-0.06573 0.3662,-0.177164 0.4622,-0.247637 0.12582,-0.09236 0.28261,-0.157505 0.56162,-0.23334 0.26764,-0.07275 0.42827,-0.13832 0.52063,-0.212531 0.17573,-0.141186 0.30688,-0.206917 0.55923,-0.280278 0.13105,-0.0381 0.25119,-0.103508 0.3244,-0.17663 0.0639,-0.06387 0.18347,-0.168079 0.26561,-0.231577 0.0821,-0.0635 0.26327,-0.249639 0.40252,-0.413649 0.32843,-0.386851 0.38354,-0.556158 0.3848,-1.182109 7.7e-4,-0.248161 -0.0134,-0.654982 -0.0309,-0.904046 -0.0383,-0.545624 -7.7e-4,-0.664969 0.26476,-0.837053 l 0.16503,-0.107037 0.58144,0.02124 c 0.78737,0.02876 1.33974,0.105486 1.96334,0.272728 0.5898,0.158178 0.59986,0.160074 1.24532,0.2347 0.56486,0.06531 0.83639,0.131617 1.10274,0.2693 0.23339,0.120641 0.43806,0.165461 1.00888,0.220936 0.64474,0.06266 1.12006,0.139329 1.31751,0.212517 0.22538,0.08355 0.64369,0.176832 0.9746,0.217344 0.13896,0.01701 0.33384,0.05292 0.43306,0.07979 0.16186,0.04384 0.18572,0.06368 0.23248,0.193245 0.0682,0.188831 0.0742,0.986675 0.009,1.202242 -0.0258,0.0855 -0.10075,0.215447 -0.16655,0.288769 -0.0658,0.07332 -0.15309,0.199417 -0.194,0.280208 -0.0409,0.08079 -0.13376,0.217974 -0.20634,0.304851 -0.0726,0.08688 -0.17816,0.249472 -0.23462,0.361323 -0.0565,0.111852 -0.1599,0.27835 -0.22986,0.369997 -0.07,0.09165 -0.16221,0.236544 -0.205,0.321995 -0.0428,0.08545 -0.12396,0.204095 -0.18037,0.263653 -0.0564,0.05956 -0.13518,0.181384 -0.17507,0.270721 -0.0399,0.08934 -0.12266,0.209157 -0.18392,0.266263 -0.0613,0.05711 -0.14387,0.167481 -0.18357,0.245276 -0.0397,0.07779 -0.12624,0.201625 -0.19236,0.275179 -0.0661,0.07355 -0.17976,0.247437 -0.25254,0.386407 -0.13716,0.26185 -0.43919,0.715988 -0.61568,0.925731 -0.0558,0.06628 -0.13002,0.187282 -0.165,0.268886 -0.035,0.0816 -0.11399,0.205756 -0.17557,0.275894 -0.0616,0.07014 -0.13612,0.18534 -0.16565,0.256007 -0.0295,0.07067 -0.11782,0.180025 -0.19621,0.243018 -0.0808,0.06494 -0.1819,0.197708 -0.23347,0.306639 -0.05,0.105659 -0.14914,0.273088 -0.22025,0.372063 -0.0711,0.09898 -0.1619,0.276534 -0.20176,0.394574 -0.0539,0.15953 -0.10877,0.243784 -0.21388,0.328249 -0.0923,0.0742 -0.15668,0.164624 -0.18542,0.260577 -0.0272,0.09092 -0.0894,0.181575 -0.16311,0.237775 -0.0655,0.04996 -0.15431,0.150007 -0.19737,0.222333 -0.0431,0.07233 -0.10327,0.151808 -0.1338,0.176624 -0.0678,0.05515 -0.38874,0.05883 -0.59424,0.0068 -0.14374,-0.03638 -0.15648,-0.05092 -0.25363,-0.289214 -0.0563,-0.137997 -0.15761,-0.327858 -0.22523,-0.421915 -0.0676,-0.09406 -0.1627,-0.245639 -0.21132,-0.336849 -0.1088,-0.204172 -0.156,-0.235206 -0.65117,-0.428148 -0.51349,-0.200079 -0.73552,-0.222726 -0.97816,-0.09977 -0.0988,0.05005 -0.33046,0.140332 -0.51489,0.200631 -0.23551,0.077 -0.37715,0.147436 -0.47589,0.23665 -0.15134,0.136724 -0.39509,0.274527 -0.4856,0.274527 -0.0307,0 -0.23847,0.09507 -0.46166,0.211271 -0.2232,0.116198 -0.51502,0.247324 -0.64849,0.291389 -0.14258,0.04707 -0.32691,0.145524 -0.44688,0.238685 -0.11232,0.08721 -0.263,0.17726 -0.33487,0.20012 -0.0719,0.02285 -0.30932,0.135146 -0.52771,0.249535 -0.21838,0.114397 -0.54111,0.253096 -0.71718,0.308224 -0.2261,0.07079 -0.36515,0.139193 -0.47339,0.232873 -0.18531,0.16038 -0.43475,0.235794 -0.95195,0.2878 -0.20559,0.02067 -0.39239,0.03515 -0.4151,0.03218 -0.0227,-0.003 -0.09,-0.01103 -0.14959,-0.01789 z"
       style="fill:#0058ff;fill-opacity:1;stroke:none;stroke-width:0.00360962;stroke-miterlimit:4;stroke-dasharray:none" />
  </g>
</svg>
